<svg width="530" height="610" viewBox="0 0 530 610" fill="none" xmlns="http://www.w3.org/2000/svg">
<rect width="300.222" height="300.222" transform="matrix(0.866025 -0.5 0.866025 0.5 5 454.24)" stroke="url(#paint0_linear_49_18)" stroke-opacity="0.6" stroke-width="10" stroke-linejoin="bevel"/>
<rect width="207.801" height="207.801" transform="matrix(0.866025 -0.5 2.20305e-08 1 264.503 302.771)" fill="url(#paint1_linear_49_18)"/>
<rect width="207.801" height="207.801" transform="matrix(0.866025 0.5 -2.20305e-08 1 84.5415 198.87)" fill="url(#paint2_linear_49_18)"/>
<g style="mix-blend-mode:darken">
<rect width="207.801" height="207.801" transform="matrix(0.866025 -0.5 0.866025 0.5 84.5415 198.87)" fill="url(#paint3_linear_49_18)"/>
</g>
<g style="mix-blend-mode:screen" opacity="0.4">
<rect width="207.801" height="207.801" transform="matrix(0.866025 -0.5 0.866025 0.5 85.2134 275.625)" fill="url(#paint4_linear_49_18)"/>
</g>
<g style="mix-blend-mode:screen" opacity="0.4">
<rect width="207.801" height="207.801" transform="matrix(0.866025 -0.5 0.866025 0.5 85.2134 350.306)" fill="url(#paint5_linear_49_18)"/>
</g>
<rect width="300.111" height="299.395" transform="matrix(0.866025 -0.5 0.866025 0.5 5 153.055)" stroke="url(#paint6_linear_49_18)" stroke-opacity="0.6" stroke-width="10" stroke-linejoin="bevel"/>
<rect width="299.395" height="301.549" transform="matrix(0.866025 -0.5 2.20305e-08 1 265.717 302.753)" stroke="url(#paint7_linear_49_18)" stroke-opacity="0.6" stroke-width="10" stroke-linejoin="bevel"/>
<path d="M5 157.847C5 156.19 6.1632 155.518 7.59808 156.347L260.253 302.217C261.688 303.046 262.851 305.06 262.851 306.717L262.851 599.863C262.851 601.52 261.688 602.191 260.253 601.363L7.59807 455.492C6.16319 454.664 4.99999 452.649 4.99999 450.992L5 157.847Z" stroke="url(#paint8_linear_49_18)" stroke-opacity="0.6" stroke-width="10" stroke-linejoin="round"/>
<defs>
<linearGradient id="paint0_linear_49_18" x1="150.111" y1="0" x2="150.111" y2="300.222" gradientUnits="userSpaceOnUse">
<stop stop-color="#CB3068"/>
<stop offset="1" stop-color="#CC5C1D"/>
</linearGradient>
<linearGradient id="paint1_linear_49_18" x1="246.837" y1="109.001" x2="27.1761" y2="265.594" gradientUnits="userSpaceOnUse">
<stop stop-color="#FF7C32"/>
<stop offset="1" stop-color="#CB3068"/>
</linearGradient>
<linearGradient id="paint2_linear_49_18" x1="249.707" y1="-58.7348" x2="-101.263" y2="-37.7329" gradientUnits="userSpaceOnUse">
<stop stop-color="#E7702E"/>
<stop offset="1" stop-color="#CB3068"/>
</linearGradient>
<linearGradient id="paint3_linear_49_18" x1="165.323" y1="165.323" x2="150.952" y2="-80.6572" gradientUnits="userSpaceOnUse">
<stop stop-color="#FF7C32"/>
<stop offset="1" stop-color="#CB3068"/>
</linearGradient>
<linearGradient id="paint4_linear_49_18" x1="165.323" y1="165.323" x2="150.952" y2="-80.6572" gradientUnits="userSpaceOnUse">
<stop stop-color="#FF7C32"/>
<stop offset="1" stop-color="#CB3068"/>
</linearGradient>
<linearGradient id="paint5_linear_49_18" x1="165.323" y1="165.323" x2="150.952" y2="-80.6572" gradientUnits="userSpaceOnUse">
<stop stop-color="#FF7C32"/>
<stop offset="1" stop-color="#CB3068"/>
</linearGradient>
<linearGradient id="paint6_linear_49_18" x1="150.055" y1="0" x2="150.055" y2="299.395" gradientUnits="userSpaceOnUse">
<stop stop-color="#CB3068"/>
<stop offset="1" stop-color="#CC5C1D"/>
</linearGradient>
<linearGradient id="paint7_linear_49_18" x1="149.698" y1="0" x2="149.698" y2="301.549" gradientUnits="userSpaceOnUse">
<stop stop-color="#CB3068"/>
<stop offset="1" stop-color="#CC5C1D"/>
</linearGradient>
<linearGradient id="paint8_linear_49_18" x1="133.926" y1="229.282" x2="4.39185" y2="453.641" gradientUnits="userSpaceOnUse">
<stop stop-color="#CB3068"/>
<stop offset="1" stop-color="#CC5C1D"/>
</linearGradient>
</defs>
</svg>
